<svg width="31" height="35" viewBox="0 0 31 35" fill="none" xmlns="http://www.w3.org/2000/svg">
<path d="M15.2003 34.9196C18.5008 34.9196 30.1495 23.9554 30.1495 15.6992C30.1495 7.44302 23.4565 0.75 15.2003 0.75C11.8383 0.75 8.73547 1.85981 6.23828 3.73307H16.0211C18.1996 3.73307 20.0556 4.14915 21.589 4.9813C23.1224 5.80411 24.2912 6.9495 25.0953 8.41743C25.9087 9.87604 26.3155 11.5591 26.3155 13.4665C26.3155 15.3739 25.9041 17.0569 25.0812 18.5155C24.2585 19.9741 23.0663 21.1102 21.5049 21.9236C19.9527 22.737 18.0734 23.1438 15.8668 23.1438H10.7616V32.4564H10.6727C12.5617 33.9852 14.2367 34.9196 15.2003 34.9196Z" fill="#FF7A00"/>
<path d="M10.7578 18.2784H14.8812C16.05 18.2784 17.013 18.0774 17.7704 17.6753C18.5371 17.2639 19.1074 16.6982 19.4814 15.9783C19.8648 15.249 20.0565 14.4121 20.0565 13.4678C20.0565 12.514 19.8648 11.6819 19.4814 10.9713C19.1074 10.2513 18.5371 9.69504 17.7704 9.30232C17.0037 8.90027 16.0313 8.69922 14.8531 8.69922H10.7578V18.2784Z" fill="#FF7A00"/>
<path d="M4.68775 5.06836C1.94769 7.77818 0.25 11.5398 0.25 15.698C0.25 19.057 2.17813 22.8642 4.68775 26.199V5.06836Z" fill="#FF7A00"/>
</svg>
